<?xml version="1.0" encoding="UTF-8"?>
<svg xmlns="http://www.w3.org/2000/svg" version="1.1" viewBox="0 0 1024 1024">
  <defs>
    <style>
      .cls-1 {
        fill: #fff;
      }
    </style>
  </defs>
  <!-- Generator: Adobe Illustrator 28.7.1, SVG Export Plug-In . SVG Version: 1.2.0 Build 142)  -->
  <g>
    <g id="Layer_2">
      <path class="cls-1" d="M847.67,620.1c-56,12-139,44-151,19s7-59,43-59,161,13,168-44c7-57-45-61-89-35-44,26-67-28-63-37s21-58,84-63,74-95,19-102-55,36-87,29-10-105-34-121-72-13-77,37,29.5,64.5,23.5,96.5-32,36-51,30c-60.35-19.06-30.5-92.5-18.5-110.5s50-105,4-111-53,15-60,29-10,42-23,32-23-102-68-85-37,69-6,102,37,73,13,76-33-36-34-65-42-37-49-4-18.5,142.5,84.5,146.5,97.61,86.18,145,103c15.5,5.5,37.72,6.18,50,25,7.5,11.5,3,27-6,46-11.77,24.85-29.13,45.28-34.69,42.03-10.31-6.03,16.69-44.03-3.51-51.81-38.97-15.02-70.8.78-73.8,4.78s-1.91,8.07.46,10.43c6.31,6.28,17.12,6.22,23.88,13.57,7.58,8.23,7.42,27.98,1.88,37.25-5.96,9.97-17.36,14.06-28.33,15.19-10.51,1.07-24.9-7.43-29.64-15.77-5.2-9.15-3.77-21.52-3.26-31.66.11-2.17-2.62-8.32-9.81-3.16s-49.08,47.26-45.88,65.33c3.69,20.83,49.08.19,51.69,13.83s-32,20-63,18c-34.16-2.2-45-5-34.5-63.5,7.85-43.72-70.64-100.02-26.5-181.5,39-72-37.5-60.5-38.5-125.5s1-101-45-92-22,56-5,78,19,66,0,72-46-17-59-54-43-53-63-34-1,74,40,104,17,34,4,25-66-41-79-9-5,58,81,67,119,56,110,79-64,1-83-20c-19-21-49-34.2-62.5-6.1-13.5,28.1,42.5,37.1,35.5,55.1s-36,16-68,0-60,1-61,15-13,54,73,57,160.13-4.11,162.5,31.5c3,45-19,40-55,36-65.36-7.26-95-64-129-26s16,54,47,57,36.5,25.5,34.5,35.5-19.5,8.5-42.5-3.5c-70.58-36.82-44.52,69.65,79,58,106-10,79.5-25.5,152-61,105.62-51.72,73.5,63.5,69.5,83.5s-4,41,30.5,49.5c0,0,57,14,44-47s-2-79,17-90,46.5-35.5,143.5,41.5,91,10,91-4,0-46-51-51-109-13-87-42,79,7,98,17,139.2,26.86,152.1-28.07-22.1-87.93-78.1-75.93Z"/>
    </g>
  </g>
</svg>