<?xml version="1.0" encoding="UTF-8"?>
<svg xmlns="http://www.w3.org/2000/svg" version="1.1" viewBox="0 0 1110 803">
  <defs>
    <style>
      .cls-1 {
        isolation: isolate;
      }

      .cls-2 {
        fill: #fff;
        mix-blend-mode: hard-light;
        opacity: .25;
      }
    </style>
  </defs>
  <!-- Generator: Adobe Illustrator 28.7.1, SVG Export Plug-In . SVG Version: 1.2.0 Build 142)  -->
  <g class="cls-1">
    <g id="Layer_1">
      <path class="cls-2" d="M-39.82,961.06c-4.04-22.49-9.04-44.88-11.76-67.49-1.79-14.87-2.82-30.49.26-45.01,5.27-24.83-3.32-43.83-21.13-62.22-24.07-24.84-48.7-49.74-68.39-77.3-12.35-17.28-19.23-39.11-22.3-59.66-1.46-9.77,9.11-26.21,19.1-30.47,7.95-3.39,26.73,4.39,34.53,12.16,10.81,10.78,15.69,26.27,23.36,39.63,13.64,23.73,25.76,48.37,42.1,70.52,6.34,8.59,23.93,17.31,33.59,15.28,9.92-2.09,19.7-16.24,23.74-26.87,10.87-28.65,9.15-54.53-17.93-78.97-49.05-44.25-83.4-96.82-93.51-160.01-7.22-45.13-2.2-88.59,28.8-126.07,21.67-26.21,33.06-53.87,29.82-86.3-.14-1.36,0-2.76.2-4.12,2.14-14.95,1.89-34.27,22.95-35.74,22.25-1.56,30.23,16.88,33.77,33.42,8.53,39.95.11,77.16-30.21,108.22-28.69,29.39-39.93,63.25-27.69,99.6,11.63,34.53,30.04,67.28,46.27,100.49,2.77,5.67,9.56,9.76,14.49,14.58,2.4-.54,4.79-1.08,7.19-1.61,0-11.52,1.17-23.15-.23-34.52-3.67-30.05-9.66-59.92-12.16-90.02-.9-10.86,3-23.61,9.45-32.85,4.64-6.64,18-13.17,25.88-11.89,7.77,1.26,17.23,11.62,19.3,19.41,3.09,11.57.41,24.4.03,36.69-.13,4.12-1.78,8.43-.89,12.31,2.62,11.46,6.15,22.76,9.33,34.12,11.41-4.58,22.94-8.92,34.15-13.86,4.04-1.78,6.91-6.49,10.95-7.29,9.01-1.78,21.88-5.53,26.75-1.79,5.38,4.14,7.94,18.3,4.06,23.62-10.18,13.96-22.86,27.42-37.56,37.58-29.85,20.63-40.43,36.7-32.46,57.7,8.51,22.43,44.75,40.93,77.43,39.52,28.94-1.25,49.05-14.78,53.98-42.24,3.32-18.53,1.68-38.36-1.42-57.12-10-60.35-38.9-113.51-87.45-155.96-50.15-43.85-79.55-94.5-85.85-157.36-2.71-27.08-14.29-53.37-20.42-80.28-3.64-15.98-7.57-32.79-5.5-48.61,1.2-9.17,13.1-23.03,21.85-24.12,10.68-1.34,27.84,5.82,33.71,14.12,9.47,13.39,12.15,30.68,17.41,46.4,2.33,6.98,3.95,14.14,7.65,27.59,10.8-13,17.79-21.34,24.69-29.74,8.76-10.65,19.47-19.52,34.84-12.83,15.67,6.82,17.96,20.62,12.28,33.78-5.47,12.66-13.4,24.66-21.66,36.14-32.24,44.79-30.35,85.73,6.66,127.33,20.11,22.6,43.21,22.21,54.27-4.41,11.05-26.6,15.8-55.5,21.23-83.71,3.63-18.85.82-38.93,6.29-57.16,3.12-10.39,17.1-18.16,26.19-27.12,9.71,8.57,24.69,15.79,28,26.02,6.06,18.72,5.19,39.23,7.28,58.98.35,3.27,1.08,6.5,2.72,16.18,10.76-10.29,18.41-16.92,25.18-24.2,19.02-20.49,36.5-27.3,50.23-19.03,13.75,8.28,14.61,26.51-2.58,48.21-17.23,21.75-37.66,41.55-57.6,61.49-21.15,21.15-42.8,41.94-48.11,71.28-1.21,6.71,1.92,14.05,3.06,21.11,7.23-2.88,15.45-4.63,21.49-8.87,12.02-8.44,21.43-20.8,34.63-26.66,9.79-4.35,23.84-1,36-1.08-.57,11.44,3.43,25.75-2.76,33.67-10.15,12.99-26.36,22.51-41.02,32.29-30.93,20.64-35.29,26.37-22.6,58.83,24.09,61.64,17.22,120.12-22.22,173.81-56.65,77.11-26.05,148.82,13.02,220.19,5.15,9.4,21.39,20.81,30.67,19.65,9.8-1.23,21.01-15.21,25.32-25.69,12.08-29.35,10.47-58.9-3.96-88.3-11.37-23.17-21.92-47.09-28.45-71.62-10.12-37.99,7.06-67.85,46.84-84.6,19.45-8.19,28.01-18.74,25.22-38.46-4.7-33.26,8.64-63.48,22.36-93.68,24.86-54.68,47.48-110.2,73.29-164.51,10.63-22.36,25.33-43.7,41.81-63.02,6.02-7.06,24.95-12,33.6-8.7,8.95,3.42,19.07,19.11,17.31,27.52-5.26,25.16-16.42,49.29-24.58,74.01-3.67,11.11-5.68,22.66-8.44,34.01,13.19.16,27.01,2.63,39.41-.09,15.43-3.39,29.39-11.79,44.52-16.7,14.88-4.82,31.53-7.62,41.53,6.87,9.7,14.05-1.97,24.46-12.28,34-24.88,22.99-57.39,27.44-90.78,29.93-41.49,3.1-82.41,43.31-79.95,82.36,11.37-2.79,21.83-5.71,32.48-7.88,13.32-2.71,26.87-6.77,40.17-6.35,7.23.23,17.83,7.41,20.16,13.52,2.32,6.08-1.29,18.78-6.73,21.51-16.97,8.52-35.51,15.71-54.42,19.73-32.61,6.93-53.78,24.28-59.05,52.98-4.41,23.98,8.26,37.7,35.12,36.46,44.81-2.06,83.45-19.43,109.6-50.38,28.89-34.2,50.94-73.05,75.81-109.96,5.9-8.76,9.19-19.89,17.3-26.22,7.58-5.92,21.46-11.21,29.8-8.87,8.44,2.36,18.76,14.32,18.96,22.26.47,18.88-1.06,38.95-7.96,56.61-30.92,79.15-89.5,135.44-179.29,162.79-37.49,11.42-75.46,9.51-113.1-2.6-10.47-3.37-22.75-2.21-34.2-3.13,1.32,11.82-.94,25.23,4.57,35.21,30.44,55.14,32.01,112.28,11.18,168.72-12.86,34.84-36.52,66.39-53.59,100.12-21.48,42.42-41.47,85.45-61.35,128.5-3,6.49-1.92,14.49-3.24,26.34,5.67-4.81,8.76-6.15,9.12-7.93,8.79-43.4,36.85-77.8,63.54-113.34,31.67-42.18,61.34-85.62,90.13-129.45,13.52-20.58,16.83-41.57,3.83-66.47-8.35-15.99-4.3-38.57-.78-57.44,1.47-7.9,15.97-13.85,24.55-20.69,5.9,8.75,13.34,17.01,17.19,26.43,2.73,6.69-.04,15.03.82,22.53,2.05,17.97,14.36,23.96,29.5,12.67,32.18-24.01,64.62-48.7,52.57-93.25-1.38-5.1-1.57-12.12,1.34-16.12,5.38-7.4,13.47-13.23,20.43-19.71,7.5,6.7,16.29,12.63,22.1,20.35,4.97,6.61,6.52,15.27,9.59,23.03,9.68-5.11,23.19-8.1,28.39-15.67,27.69-40.32,52.82-82.04,79.88-122.72,9.29-13.97,19.66-28.28,33.02-38.93,19.25-15.33,42.14-7.18,45.6,15.66,1.79,11.79-.19,24.82-3.99,36.37-23.55,71.62-80.02,120.66-143.34,164.81-16.96,11.82-34.11,23.5-50.05,36.37-5.01,4.05-6.36,11.73-9.39,17.75,6.59,2.64,12.93,6.33,19.84,7.7,14.43,2.87,35.24.37,33.66,19.7-1.52,18.59-21.66,18.61-37.81,18.88-11.47.19-22.96-1.95-34.47-2.24-29.59-.75-57.37,13.91-66.71,38.95-4.11,11.03-4.72,28.08,2.2,36.04,6.95,7.99,27.51,13.82,38.13,10.48,26.29-8.26,50.82-21.51,75.04-34.31,15.1-7.98,28.08-19.1,42.51-28.18,6.2-3.9,13.54-8.36,20.6-8.69,10.71-.51,26.15-.88,31.16,4.72,4.83,5.4,2.16,20.01-2.68,27.88-30.45,49.5-128.69,94.6-191.15,85.4-32.48-4.78-55.35,3.77-69.94,27.4-23.65,38.32-45.25,77.72-65.53,117.55-3.48,6.84,3.87,18.11,6.22,27.33,9.73-4.23,22.56-6.33,28.47-13.2,8.57-9.96,12.09-23.39,17.89-35.29,5.79-11.9,9.62-25.21,18.31-35.09,5.92-6.73,18.72-8.61,28.44-12.66,2.94,8.65,8.45,17.37,8.14,25.92-.36,9.95-6.84,19.6-8.77,29.68-1.7,8.82-.78,18.05-1.02,27.09,9.74-2.91,19.92-5,29.1-8.95,12.35-5.32,23.28-13.68,36-17.83,18.57-6.06,30.47,3.67,22.69,19.73-6.34,13.09-17.87,26.08-30.91,34.2-19.31,12.02-42.52,18.89-63.12,29.42-24.52,12.54-48.65,25.86-71.68,40.46-8.25,5.23-16.72,14.57-18.29,23.05-4.9,26.29-22.77,28.2-47.52,27.46-51.47-1.55-103.07-1.18-154.57-.01-19.76.45-26.2-5.69-23.81-22.43,6.06-42.5-17.51-71.99-55.76-92.05-78.01-40.91-127.99-101.65-160.39-175.38-11.73-26.7-24.82-50.1-57.95-62.1-24.49-8.87-38.95-29.52-40.9-53.68-.72-8.85,4.66-23.9,11.25-25.98,8.67-2.73,24.22,1.81,31.55,8.12,12.65,10.9,21.25,25.57,31.55,38.66,1.96-.69,3.91-1.37,5.87-2.05ZM175.21,870.94c2.91-1.5,5.82-3,8.73-4.5-9.97-36.14-16.53-73.47-31.48-107.88-6.65-15.3-28.6-27.42-46.56-36.05-20.15-9.67-26.85-3.08-32.95,16.9-7.39,24.23-14.2,49.7-28.21,70.97-21.1,32.04-28.74,64.66-23.28,100.7,7.63,50.34,25.03,98.13,52.71,142.13,18.28,29.05,40.23,56.64,63.81,82.49,13.69,15.01,35.73,19.51,57.06,10.81,20.19-8.23,28.76-24.01,28.84-43.51.08-21.11-12.56-34.17-33.02-43.19-14.33-6.31-29.09-12.94-41.04-22.15-10.85-8.35-20.96-20.62-9.25-34.27,11.01-12.82,26.47-9.76,39.77-3.34,14.12,6.81,26.64,16.24,40.5,23.56,4.57,2.41,11.12,1.81,16.76,2.59.56-5.14,3.24-11.05,1.31-15.28-7.53-16.5-17.35-32.18-24.76-48.72-9.19-20.49-24.73-33.05-47.82-41.44-21.01-7.63-41.56-18.13-59.2-30.83-19.26-13.86-22.54-37.31-9.65-47.38,18.89-14.76,34.13-2.62,48.92,7.45,9.85,6.7,19.24,13.94,28.83,20.94Z"/>
    </g>
  </g>
</svg>